# MagicaVoxel @ Ephtracy

# group
o 

# material
mtllib df1.mtl
usemtl palette

# normals
vn -1 0 0
vn 1 0 0
vn 0 0 1
vn 0 0 -1
vn 0 -1 0
vn 0 1 0

# texcoords
vt 0.845703 0.5
vt 0.970703 0.5

# verts
v -0.3 0 0.9
v -0.3 0 0.7
v -0.3 0.1 0.9
v -0.3 0.1 0.8
v -0.3 0.2 0.9
v -0.3 0.2 0.8
v -0.3 0.2 0.7
v -0.1 0 0.9
v -0.1 0 0.7
v -0.1 0.2 0.9
v -0.1 0.2 0.7
v -0.3 0 0.9
v -0.3 0.1 0.9
v -0.3 0.2 0.9
v -0.2 0.1 0.9
v -0.2 0.2 0.9
v -0.1 0 0.9
v -0.1 0.2 0.9
v -0.3 0 0.7
v -0.3 0.2 0.7
v -0.1 0 0.7
v -0.1 0.2 0.7
v -0.3 0 0.9
v -0.1 0 0.9
v -0.3 0 0.7
v -0.1 0 0.7
v -0.3 0.2 0.9
v -0.2 0.2 0.9
v -0.1 0.2 0.9
v -0.3 0.2 0.8
v -0.2 0.2 0.8
v -0.3 0.2 0.7
v -0.1 0.2 0.7

# faces
f 3/2/1 2/2/1 1/2/1
f 4/2/1 2/2/1 3/2/1
f 5/1/1 4/1/1 3/1/1
f 6/2/1 2/2/1 4/2/1
f 6/1/1 4/1/1 5/1/1
f 7/2/1 2/2/1 6/2/1
f 8/2/2 9/2/2 10/2/2
f 10/2/2 9/2/2 11/2/2
f 15/2/3 13/2/3 12/2/3
f 15/1/3 14/1/3 13/1/3
f 16/1/3 14/1/3 15/1/3
f 17/2/3 15/2/3 12/2/3
f 17/2/3 16/2/3 15/2/3
f 18/2/3 16/2/3 17/2/3
f 19/2/4 20/2/4 21/2/4
f 21/2/4 20/2/4 22/2/4
f 25/2/5 24/2/5 23/2/5
f 26/2/5 24/2/5 25/2/5
f 27/1/6 28/1/6 30/1/6
f 28/2/6 29/2/6 31/2/6
f 30/1/6 28/1/6 31/1/6
f 30/2/6 31/2/6 32/2/6
f 31/2/6 29/2/6 33/2/6
f 32/2/6 31/2/6 33/2/6
