# MagicaVoxel @ Ephtracy

# group
o 

# material
mtllib dysh.mtl
usemtl palette

# normals
vn -1 0 0
vn 1 0 0
vn 0 0 1
vn 0 0 -1
vn 0 -1 0
vn 0 1 0

# texcoords
vt 0.962891 0.5
vt 0.966797 0.5
vt 0.970703 0.5
vt 0.974609 0.5
vt 0.978516 0.5
vt 0.982422 0.5

# verts
v -2 0 2
v -2 0 -2
v -2 0.2 1.9
v -2 0.2 -1.9
v -2 7.9 1.9
v -2 7.9 -1.9
v -2 8 2
v -2 8 -2
v -1.4 2.4 -1.6
v -1.4 2.4 -1.8
v -1.4 2.6 -1.6
v -1.4 2.6 -1.8
v -1.3 2.4 -1.8
v -1.3 2.4 -1.9
v -1.3 2.6 -1.8
v -1.3 2.6 -1.9
v -0.6 4 -1.8
v -0.6 4 -1.9
v -0.6 4.2 -1.7
v -0.6 4.2 -1.8
v -0.6 4.2 -1.9
v -0.6 4.5 -1.7
v -0.6 4.5 -1.8
v -0.6 4.5 -1.9
v -0.5 3.8 -1.8
v -0.5 3.8 -1.9
v -0.5 4 -1.8
v -0.5 4 -1.9
v -0.4 0.1 -1.7
v -0.4 0.1 -1.9
v -0.4 0.2 -1.7
v -0.4 0.2 -1.9
v -0.4 3.7 -1.8
v -0.4 3.7 -1.9
v -0.4 3.8 -1.8
v -0.4 3.8 -1.9
v -0.4 7.4 -1.3
v -0.4 7.4 -1.6
v -0.4 7.5 -1.3
v -0.4 7.5 -1.6
v -0.4 7.7 -1.3
v -0.4 7.7 -1.6
v -0.3 0.2 -1.8
v -0.3 0.2 -1.9
v -0.3 2.4 -1.8
v -0.3 2.4 -1.9
v -0.3 2.9 -1.8
v -0.3 2.9 -1.9
v -0.3 3.7 -1.8
v -0.3 3.7 -1.9
v -0.3 7.4 -1.6
v -0.3 7.4 -1.7
v -0.3 7.5 -1.6
v -0.3 7.5 -1.7
v -0.3 7.5 -1.9
v -0.3 7.7 -1.6
v -0.3 7.7 -1.9
v -0.2 2.4 -1.8
v -0.2 2.4 -1.9
v -0.2 2.5 -1.8
v -0.2 2.5 -1.9
v -0.0999999 2.4 -1.7
v -0.0999999 2.4 -1.8
v -0.0999999 2.5 -1.7
v -0.0999999 2.5 -1.8
v -0.0999999 2.5 -1.9
v -0.0999999 2.6 -1.8
v -0.0999999 2.6 -1.9
v -0.0999999 3 -1.8
v -0.0999999 3 -1.9
v -0.0999999 3.1 -1.8
v -0.0999999 3.1 -1.9
v 2.38419e-07 3.1 -1.8
v 2.38419e-07 3.1 -1.9
v 2.38419e-07 3.2 -1.8
v 2.38419e-07 3.2 -1.9
v 0.1 3.2 -1.8
v 0.1 3.2 -1.9
v 0.1 3.3 -1.8
v 0.1 3.3 -1.9
v 0.2 2.7 -1.8
v 0.2 2.7 -1.9
v 0.2 2.8 -1.8
v 0.2 2.8 -1.9
v 0.2 3.2 -1.7
v 0.2 3.2 -1.8
v 0.2 3.3 -1.7
v 0.2 3.3 -1.8
v 0.2 3.3 -1.9
v 0.2 3.4 -1.8
v 0.2 3.4 -1.9
v 0.3 2.5 -1.8
v 0.3 2.5 -1.9
v 0.3 2.7 -1.7
v 0.3 2.7 -1.8
v 0.3 2.7 -1.9
v 0.3 2.8 -1.7
v 0.3 2.8 -1.8
v 0.3 2.8 -1.9
v 0.3 3.1 -1.8
v 0.3 3.1 -1.9
v 1.9 0.1 1.9
v 1.9 0.1 -1.9
v 1.9 0.2 1.9
v 1.9 0.2 -1.9
v 1.9 7.9 1.9
v 1.9 7.9 -1.9
v -1.9 0.1 1.9
v -1.9 0.1 -1.9
v -1.9 0.2 1.9
v -1.9 0.2 -1.9
v -1.1 2.4 -1.8
v -1.1 2.4 -1.9
v -1.1 2.6 -1.8
v -1.1 2.6 -1.9
v -1 2.4 -1.6
v -1 2.4 -1.8
v -1 2.6 -1.6
v -1 2.6 -1.8
v -0.4 3.8 -1.8
v -0.4 3.8 -1.9
v -0.4 4 -1.8
v -0.4 4 -1.9
v -0.3 3.7 -1.8
v -0.3 3.7 -1.9
v -0.3 3.8 -1.8
v -0.3 3.8 -1.9
v -0.3 4 -1.8
v -0.3 4 -1.9
v -0.3 4.2 -1.7
v -0.3 4.2 -1.8
v -0.3 4.2 -1.9
v -0.3 4.5 -1.7
v -0.3 4.5 -1.8
v -0.3 4.5 -1.9
v -0.2 0.2 -1.8
v -0.2 0.2 -1.9
v -0.2 2.3 -1.8
v -0.2 2.3 -1.9
v -0.2 3 -1.8
v -0.2 3 -1.9
v -0.2 3.7 -1.8
v -0.2 3.7 -1.9
v -0.0999999 0.1 -1.7
v -0.0999999 0.1 -1.9
v -0.0999999 0.2 -1.7
v -0.0999999 0.2 -1.9
v -0.0999999 2.9 -1.8
v -0.0999999 2.9 -1.9
v -0.0999999 3 -1.8
v -0.0999999 3 -1.9
v -0.0999999 7.4 -1.6
v -0.0999999 7.4 -1.7
v -0.0999999 7.5 -1.6
v -0.0999999 7.5 -1.7
v -0.0999999 7.5 -1.9
v -0.0999999 7.7 -1.6
v -0.0999999 7.7 -1.9
v 2.38419e-07 2.3 -1.8
v 2.38419e-07 2.3 -1.9
v 2.38419e-07 2.4 -1.7
v 2.38419e-07 2.4 -1.8
v 2.38419e-07 2.4 -1.9
v 2.38419e-07 2.5 -1.7
v 2.38419e-07 2.5 -1.8
v 2.38419e-07 2.5 -1.9
v 2.38419e-07 2.6 -1.8
v 2.38419e-07 2.6 -1.9
v 2.38419e-07 7.4 -1.3
v 2.38419e-07 7.4 -1.6
v 2.38419e-07 7.5 -1.3
v 2.38419e-07 7.5 -1.6
v 2.38419e-07 7.7 -1.3
v 2.38419e-07 7.7 -1.6
v 0.1 3 -1.8
v 0.1 3 -1.9
v 0.1 3.1 -1.8
v 0.1 3.1 -1.9
v 0.3 3.2 -1.7
v 0.3 3.2 -1.8
v 0.3 3.3 -1.7
v 0.3 3.3 -1.8
v 0.3 3.3 -1.9
v 0.3 3.4 -1.8
v 0.3 3.4 -1.9
v 0.4 2.4 -1.8
v 0.4 2.4 -1.9
v 0.4 2.7 -1.7
v 0.4 2.7 -1.8
v 0.4 2.7 -1.9
v 0.4 2.8 -1.7
v 0.4 2.8 -1.8
v 0.4 2.8 -1.9
v 0.4 3.3 -1.8
v 0.4 3.3 -1.9
v 0.5 2.7 -1.8
v 0.5 2.7 -1.9
v 0.5 2.8 -1.8
v 0.5 2.8 -1.9
v 2 0 2
v 2 0 -2
v 2 0.2 1.9
v 2 0.2 -1.9
v 2 7.7 2
v 2 7.7 1.9
v 2 7.9 2
v 2 7.9 -1.9
v 2 8 2
v 2 8 -2
v -2 0 2
v -2 8 2
v -1.9 0.2 2
v -1.9 7.9 2
v 1.9 0.2 2
v 1.9 7.7 2
v 2 0 2
v 2 7.7 2
v 2 7.9 2
v 2 8 2
v -0.4 7.4 -1.3
v -0.4 7.5 -1.3
v -0.4 7.7 -1.3
v 2.38419e-07 7.4 -1.3
v 2.38419e-07 7.5 -1.3
v 2.38419e-07 7.7 -1.3
v -1.4 2.4 -1.6
v -1.4 2.6 -1.6
v -1 2.4 -1.6
v -1 2.6 -1.6
v -0.6 4.2 -1.7
v -0.6 4.5 -1.7
v -0.4 0.1 -1.7
v -0.4 0.2 -1.7
v -0.3 4.2 -1.7
v -0.3 4.5 -1.7
v -0.0999999 0.1 -1.7
v -0.0999999 0.2 -1.7
v -0.0999999 2.4 -1.7
v -0.0999999 2.5 -1.7
v 2.38419e-07 2.4 -1.7
v 2.38419e-07 2.5 -1.7
v 0.2 3.2 -1.7
v 0.2 3.3 -1.7
v 0.3 2.7 -1.7
v 0.3 2.8 -1.7
v 0.3 3.2 -1.7
v 0.3 3.3 -1.7
v 0.4 2.7 -1.7
v 0.4 2.8 -1.7
v -0.6 4 -1.8
v -0.6 4.2 -1.8
v -0.5 3.8 -1.8
v -0.5 4 -1.8
v -0.5 4.2 -1.8
v -0.4 3.7 -1.8
v -0.4 3.8 -1.8
v -0.4 4 -1.8
v -0.4 4.2 -1.8
v -0.3 0.2 -1.8
v -0.3 2.4 -1.8
v -0.3 2.9 -1.8
v -0.3 3.7 -1.8
v -0.3 3.8 -1.8
v -0.3 4 -1.8
v -0.3 4.2 -1.8
v -0.2 0.2 -1.8
v -0.2 2.3 -1.8
v -0.2 2.4 -1.8
v -0.2 2.5 -1.8
v -0.2 3 -1.8
v -0.2 3.7 -1.8
v -0.0999999 2.3 -1.8
v -0.0999999 2.4 -1.8
v -0.0999999 2.5 -1.8
v -0.0999999 2.6 -1.8
v -0.0999999 2.9 -1.8
v -0.0999999 3 -1.8
v -0.0999999 3.1 -1.8
v 2.38419e-07 2.3 -1.8
v 2.38419e-07 2.4 -1.8
v 2.38419e-07 2.5 -1.8
v 2.38419e-07 2.6 -1.8
v 2.38419e-07 3.1 -1.8
v 2.38419e-07 3.2 -1.8
v 0.1 3 -1.8
v 0.1 3.1 -1.8
v 0.1 3.2 -1.8
v 0.1 3.3 -1.8
v 0.2 2.7 -1.8
v 0.2 2.8 -1.8
v 0.2 3.1 -1.8
v 0.2 3.2 -1.8
v 0.2 3.3 -1.8
v 0.2 3.4 -1.8
v 0.3 2.5 -1.8
v 0.3 2.7 -1.8
v 0.3 2.8 -1.8
v 0.3 3.1 -1.8
v 0.3 3.2 -1.8
v 0.3 3.3 -1.8
v 0.3 3.4 -1.8
v 0.4 2.4 -1.8
v 0.4 2.7 -1.8
v 0.4 2.8 -1.8
v 0.4 3.3 -1.8
v 0.5 2.7 -1.8
v 0.5 2.8 -1.8
v -2 0.2 -1.9
v -2 7.9 -1.9
v -1.9 0.1 -1.9
v -1.9 0.2 -1.9
v -1.9 7.9 -1.9
v -1.3 2.4 -1.9
v -1.3 2.6 -1.9
v -1.1 2.4 -1.9
v -1.1 2.6 -1.9
v -0.6 4 -1.9
v -0.6 4.2 -1.9
v -0.6 4.5 -1.9
v -0.5 3.8 -1.9
v -0.5 4 -1.9
v -0.4 0.1 -1.9
v -0.4 0.2 -1.9
v -0.4 3.7 -1.9
v -0.4 3.8 -1.9
v -0.4 4 -1.9
v -0.3 0.2 -1.9
v -0.3 2.4 -1.9
v -0.3 2.9 -1.9
v -0.3 3.7 -1.9
v -0.3 3.8 -1.9
v -0.3 4 -1.9
v -0.3 4.2 -1.9
v -0.3 4.5 -1.9
v -0.3 7.5 -1.9
v -0.3 7.7 -1.9
v -0.2 0.2 -1.9
v -0.2 2.3 -1.9
v -0.2 2.4 -1.9
v -0.2 2.5 -1.9
v -0.2 3 -1.9
v -0.2 3.7 -1.9
v -0.0999999 0.1 -1.9
v -0.0999999 0.2 -1.9
v -0.0999999 2.3 -1.9
v -0.0999999 2.5 -1.9
v -0.0999999 2.6 -1.9
v -0.0999999 2.9 -1.9
v -0.0999999 3 -1.9
v -0.0999999 3.1 -1.9
v -0.0999999 7.5 -1.9
v -0.0999999 7.7 -1.9
v 2.38419e-07 2.3 -1.9
v 2.38419e-07 2.4 -1.9
v 2.38419e-07 2.5 -1.9
v 2.38419e-07 2.6 -1.9
v 2.38419e-07 3.1 -1.9
v 2.38419e-07 3.2 -1.9
v 0.1 3 -1.9
v 0.1 3.1 -1.9
v 0.1 3.2 -1.9
v 0.1 3.3 -1.9
v 0.2 2.7 -1.9
v 0.2 2.8 -1.9
v 0.2 3.1 -1.9
v 0.2 3.3 -1.9
v 0.2 3.4 -1.9
v 0.3 2.5 -1.9
v 0.3 2.7 -1.9
v 0.3 2.8 -1.9
v 0.3 3.1 -1.9
v 0.3 3.3 -1.9
v 0.3 3.4 -1.9
v 0.4 2.4 -1.9
v 0.4 2.7 -1.9
v 0.4 2.8 -1.9
v 0.4 3.3 -1.9
v 0.5 2.7 -1.9
v 0.5 2.8 -1.9
v 1.9 0.1 -1.9
v 1.9 0.2 -1.9
v 1.9 7.9 -1.9
v -2 0.2 1.9
v -2 7.9 1.9
v -1.9 0.1 1.9
v -1.9 0.2 1.9
v -1.9 7.9 1.9
v 1.9 0.1 1.9
v 1.9 0.2 1.9
v 1.9 7.9 1.9
v -0.4 7.4 -1.6
v -0.4 7.5 -1.6
v -0.4 7.7 -1.6
v -0.3 7.4 -1.6
v -0.3 7.5 -1.6
v -0.3 7.7 -1.6
v -0.0999999 7.4 -1.6
v -0.0999999 7.5 -1.6
v -0.0999999 7.7 -1.6
v 2.38419e-07 7.4 -1.6
v 2.38419e-07 7.5 -1.6
v 2.38419e-07 7.7 -1.6
v -0.3 7.4 -1.7
v -0.3 7.5 -1.7
v -0.0999999 7.4 -1.7
v -0.0999999 7.5 -1.7
v -1.4 2.4 -1.8
v -1.4 2.6 -1.8
v -1.3 2.4 -1.8
v -1.3 2.6 -1.8
v -1.1 2.4 -1.8
v -1.1 2.6 -1.8
v -1 2.4 -1.8
v -1 2.6 -1.8
v -2 0 -2
v -2 8 -2
v -1.9 0.2 -2
v -1.9 7.9 -2
v 1.9 0.2 -2
v 1.9 7.9 -2
v 2 0 -2
v 2 8 -2
v -2 0 2
v 2 0 2
v -2 0 -2
v 2 0 -2
v -0.2 2.3 -1.8
v -0.0999999 2.3 -1.8
v 2.38419e-07 2.3 -1.8
v -0.2 2.3 -1.9
v -0.0999999 2.3 -1.9
v 2.38419e-07 2.3 -1.9
v -1.4 2.4 -1.6
v -1 2.4 -1.6
v -0.0999999 2.4 -1.7
v 2.38419e-07 2.4 -1.7
v -1.4 2.4 -1.8
v -1.3 2.4 -1.8
v -1.1 2.4 -1.8
v -1 2.4 -1.8
v -0.0999999 2.4 -1.8
v 2.38419e-07 2.4 -1.8
v 0.4 2.4 -1.8
v -1.3 2.4 -1.9
v -1.1 2.4 -1.9
v 2.38419e-07 2.4 -1.9
v 0.4 2.4 -1.9
v 0.3 2.7 -1.7
v 0.4 2.7 -1.7
v 0.2 2.7 -1.8
v 0.3 2.7 -1.8
v 0.4 2.7 -1.8
v 0.5 2.7 -1.8
v 0.2 2.7 -1.9
v 0.3 2.7 -1.9
v 0.4 2.7 -1.9
v 0.5 2.7 -1.9
v -0.3 2.9 -1.8
v -0.0999999 2.9 -1.8
v -0.3 2.9 -1.9
v -0.0999999 2.9 -1.9
v -0.0999999 3 -1.8
v 0.1 3 -1.8
v -0.0999999 3 -1.9
v 0.1 3 -1.9
v 0.1 3.1 -1.8
v 0.2 3.1 -1.8
v 0.3 3.1 -1.8
v 0.1 3.1 -1.9
v 0.2 3.1 -1.9
v 0.3 3.1 -1.9
v 0.2 3.2 -1.7
v 0.3 3.2 -1.7
v 0.2 3.2 -1.8
v 0.3 3.2 -1.8
v -0.4 3.7 -1.8
v -0.3 3.7 -1.8
v -0.4 3.7 -1.9
v -0.3 3.7 -1.9
v -0.5 3.8 -1.8
v -0.4 3.8 -1.8
v -0.5 3.8 -1.9
v -0.4 3.8 -1.9
v -0.6 4 -1.8
v -0.5 4 -1.8
v -0.4 4 -1.8
v -0.3 4 -1.8
v -0.6 4 -1.9
v -0.5 4 -1.9
v -0.4 4 -1.9
v -0.3 4 -1.9
v -0.6 4.2 -1.7
v -0.3 4.2 -1.7
v -0.6 4.2 -1.8
v -0.5 4.2 -1.8
v -0.4 4.2 -1.8
v -0.3 4.2 -1.8
v -0.4 7.4 -1.3
v 2.38419e-07 7.4 -1.3
v -0.4 7.4 -1.6
v -0.3 7.4 -1.6
v -0.0999999 7.4 -1.6
v 2.38419e-07 7.4 -1.6
v -0.3 7.4 -1.7
v -0.0999999 7.4 -1.7
v -0.3 7.5 -1.7
v -0.0999999 7.5 -1.7
v -0.3 7.5 -1.9
v -0.0999999 7.5 -1.9
v -2 7.9 1.9
v -1.9 7.9 1.9
v 1.9 7.9 1.9
v -2 7.9 -1.9
v -1.9 7.9 -1.9
v 1.9 7.9 -1.9
v -1.9 0.1 1.9
v 1.9 0.1 1.9
v -0.4 0.1 -1.7
v -0.0999999 0.1 -1.7
v -1.9 0.1 -1.9
v -0.4 0.1 -1.9
v -0.0999999 0.1 -1.9
v 1.9 0.1 -1.9
v -2 0.2 1.9
v -1.9 0.2 1.9
v -0.4 0.2 -1.7
v -0.0999999 0.2 -1.7
v -0.3 0.2 -1.8
v -0.2 0.2 -1.8
v -2 0.2 -1.9
v -1.9 0.2 -1.9
v -0.4 0.2 -1.9
v -0.3 0.2 -1.9
v -0.2 0.2 -1.9
v -0.0999999 0.2 -1.9
v -0.3 2.4 -1.8
v -0.2 2.4 -1.8
v -0.3 2.4 -1.9
v -0.2 2.4 -1.9
v -0.0999999 2.5 -1.7
v 2.38419e-07 2.5 -1.7
v -0.2 2.5 -1.8
v -0.0999999 2.5 -1.8
v 2.38419e-07 2.5 -1.8
v 0.3 2.5 -1.8
v -0.2 2.5 -1.9
v -0.0999999 2.5 -1.9
v 2.38419e-07 2.5 -1.9
v 0.3 2.5 -1.9
v -1.4 2.6 -1.6
v -1 2.6 -1.6
v -1.4 2.6 -1.8
v -1.3 2.6 -1.8
v -1.1 2.6 -1.8
v -1 2.6 -1.8
v -0.0999999 2.6 -1.8
v 2.38419e-07 2.6 -1.8
v -1.3 2.6 -1.9
v -1.1 2.6 -1.9
v -0.0999999 2.6 -1.9
v 2.38419e-07 2.6 -1.9
v 0.3 2.8 -1.7
v 0.4 2.8 -1.7
v 0.2 2.8 -1.8
v 0.3 2.8 -1.8
v 0.4 2.8 -1.8
v 0.5 2.8 -1.8
v 0.2 2.8 -1.9
v 0.3 2.8 -1.9
v 0.4 2.8 -1.9
v 0.5 2.8 -1.9
v -0.2 3 -1.8
v -0.0999999 3 -1.8
v -0.2 3 -1.9
v -0.0999999 3 -1.9
v -0.0999999 3.1 -1.8
v 2.38419e-07 3.1 -1.8
v -0.0999999 3.1 -1.9
v 2.38419e-07 3.1 -1.9
v 2.38419e-07 3.2 -1.8
v 0.1 3.2 -1.8
v 2.38419e-07 3.2 -1.9
v 0.1 3.2 -1.9
v 0.2 3.3 -1.7
v 0.3 3.3 -1.7
v 0.1 3.3 -1.8
v 0.2 3.3 -1.8
v 0.3 3.3 -1.8
v 0.4 3.3 -1.8
v 0.1 3.3 -1.9
v 0.2 3.3 -1.9
v 0.3 3.3 -1.9
v 0.4 3.3 -1.9
v 0.2 3.4 -1.8
v 0.3 3.4 -1.8
v 0.2 3.4 -1.9
v 0.3 3.4 -1.9
v -0.3 3.7 -1.8
v -0.2 3.7 -1.8
v -0.3 3.7 -1.9
v -0.2 3.7 -1.9
v -0.4 3.8 -1.8
v -0.3 3.8 -1.8
v -0.4 3.8 -1.9
v -0.3 3.8 -1.9
v -0.6 4.5 -1.7
v -0.3 4.5 -1.7
v -0.6 4.5 -1.8
v -0.3 4.5 -1.8
v -0.6 4.5 -1.9
v -0.3 4.5 -1.9
v -0.4 7.7 -1.3
v 2.38419e-07 7.7 -1.3
v -0.4 7.7 -1.6
v -0.3 7.7 -1.6
v -0.0999999 7.7 -1.6
v 2.38419e-07 7.7 -1.6
v -0.3 7.7 -1.9
v -0.0999999 7.7 -1.9
v -2 8 2
v 2 8 2
v -1.9 8 1.9
v 1.9 8 1.9
v -1.9 8 -1.9
v 1.9 8 -1.9
v -2 8 -2
v 2 8 -2

# faces
f 3/6/1 2/6/1 1/6/1
f 4/6/1 2/6/1 3/6/1
f 5/6/1 3/6/1 1/6/1
f 6/6/1 2/6/1 4/6/1
f 7/6/1 5/6/1 1/6/1
f 7/6/1 6/6/1 5/6/1
f 8/6/1 2/6/1 6/6/1
f 8/6/1 6/6/1 7/6/1
f 11/3/1 10/3/1 9/3/1
f 12/3/1 10/3/1 11/3/1
f 15/3/1 14/3/1 13/3/1
f 16/3/1 14/3/1 15/3/1
f 20/5/1 18/5/1 17/5/1
f 21/5/1 18/5/1 20/5/1
f 22/5/1 20/5/1 19/5/1
f 23/3/1 21/3/1 20/3/1
f 23/5/1 20/5/1 22/5/1
f 24/3/1 21/3/1 23/3/1
f 27/3/1 26/3/1 25/3/1
f 28/3/1 26/3/1 27/3/1
f 31/3/1 30/3/1 29/3/1
f 32/3/1 30/3/1 31/3/1
f 35/3/1 34/3/1 33/3/1
f 36/3/1 34/3/1 35/3/1
f 39/4/1 38/4/1 37/4/1
f 40/4/1 38/4/1 39/4/1
f 41/3/1 40/3/1 39/3/1
f 42/3/1 40/3/1 41/3/1
f 45/3/1 44/3/1 43/3/1
f 46/3/1 44/3/1 45/3/1
f 49/3/1 48/3/1 47/3/1
f 50/3/1 48/3/1 49/3/1
f 53/3/1 52/3/1 51/3/1
f 54/3/1 52/3/1 53/3/1
f 56/3/1 54/3/1 53/3/1
f 56/3/1 55/3/1 54/3/1
f 57/3/1 55/3/1 56/3/1
f 60/3/1 59/3/1 58/3/1
f 61/3/1 59/3/1 60/3/1
f 64/2/1 63/2/1 62/2/1
f 65/2/1 63/2/1 64/2/1
f 67/2/1 66/2/1 65/2/1
f 68/2/1 66/2/1 67/2/1
f 71/3/1 70/3/1 69/3/1
f 72/3/1 70/3/1 71/3/1
f 75/3/1 74/3/1 73/3/1
f 76/3/1 74/3/1 75/3/1
f 79/3/1 78/3/1 77/3/1
f 80/3/1 78/3/1 79/3/1
f 83/2/1 82/2/1 81/2/1
f 84/2/1 82/2/1 83/2/1
f 87/2/1 86/2/1 85/2/1
f 88/2/1 86/2/1 87/2/1
f 90/2/1 89/2/1 88/2/1
f 91/2/1 89/2/1 90/2/1
f 95/3/1 93/3/1 92/3/1
f 96/3/1 93/3/1 95/3/1
f 97/2/1 95/2/1 94/2/1
f 98/2/1 95/2/1 97/2/1
f 100/3/1 99/3/1 98/3/1
f 101/3/1 99/3/1 100/3/1
f 104/6/1 103/6/1 102/6/1
f 105/6/1 103/6/1 104/6/1
f 106/1/1 105/1/1 104/1/1
f 107/1/1 105/1/1 106/1/1
f 108/6/2 109/6/2 110/6/2
f 110/6/2 109/6/2 111/6/2
f 112/3/2 113/3/2 114/3/2
f 114/3/2 113/3/2 115/3/2
f 116/3/2 117/3/2 118/3/2
f 118/3/2 117/3/2 119/3/2
f 120/3/2 121/3/2 122/3/2
f 122/3/2 121/3/2 123/3/2
f 124/3/2 125/3/2 126/3/2
f 126/3/2 125/3/2 127/3/2
f 128/5/2 129/5/2 131/5/2
f 131/5/2 129/5/2 132/5/2
f 130/5/2 131/5/2 133/5/2
f 131/3/2 132/3/2 134/3/2
f 133/5/2 131/5/2 134/5/2
f 134/3/2 132/3/2 135/3/2
f 136/3/2 137/3/2 138/3/2
f 138/3/2 137/3/2 139/3/2
f 140/3/2 141/3/2 142/3/2
f 142/3/2 141/3/2 143/3/2
f 144/3/2 145/3/2 146/3/2
f 146/3/2 145/3/2 147/3/2
f 148/3/2 149/3/2 150/3/2
f 150/3/2 149/3/2 151/3/2
f 152/3/2 153/3/2 154/3/2
f 154/3/2 153/3/2 155/3/2
f 154/3/2 155/3/2 157/3/2
f 155/3/2 156/3/2 157/3/2
f 157/3/2 156/3/2 158/3/2
f 159/2/2 160/2/2 162/2/2
f 162/2/2 160/2/2 163/2/2
f 161/2/2 162/2/2 164/2/2
f 164/2/2 162/2/2 165/2/2
f 165/2/2 166/2/2 167/2/2
f 167/2/2 166/2/2 168/2/2
f 169/4/2 170/4/2 171/4/2
f 171/4/2 170/4/2 172/4/2
f 171/3/2 172/3/2 173/3/2
f 173/3/2 172/3/2 174/3/2
f 175/3/2 176/3/2 177/3/2
f 177/3/2 176/3/2 178/3/2
f 179/2/2 180/2/2 181/2/2
f 181/2/2 180/2/2 182/2/2
f 182/2/2 183/2/2 184/2/2
f 184/2/2 183/2/2 185/2/2
f 186/3/2 187/3/2 189/3/2
f 189/3/2 187/3/2 190/3/2
f 188/2/2 189/2/2 191/2/2
f 191/2/2 189/2/2 192/2/2
f 192/3/2 193/3/2 194/3/2
f 194/3/2 193/3/2 195/3/2
f 196/2/2 197/2/2 198/2/2
f 198/2/2 197/2/2 199/2/2
f 200/6/2 201/6/2 202/6/2
f 202/6/2 201/6/2 203/6/2
f 200/6/2 202/6/2 204/6/2
f 202/1/2 203/1/2 205/1/2
f 204/6/2 202/6/2 205/6/2
f 204/1/2 205/1/2 206/1/2
f 203/6/2 201/6/2 207/6/2
f 206/1/2 205/1/2 207/1/2
f 205/1/2 203/1/2 207/1/2
f 206/6/2 207/6/2 208/6/2
f 207/6/2 201/6/2 209/6/2
f 208/6/2 207/6/2 209/6/2
f 212/6/3 211/6/3 210/6/3
f 213/6/3 211/6/3 212/6/3
f 214/6/3 212/6/3 210/6/3
f 214/1/3 213/1/3 212/1/3
f 215/1/3 213/1/3 214/1/3
f 216/6/3 214/6/3 210/6/3
f 216/6/3 215/6/3 214/6/3
f 217/1/3 213/1/3 215/1/3
f 217/6/3 215/6/3 216/6/3
f 218/6/3 211/6/3 213/6/3
f 218/1/3 213/1/3 217/1/3
f 219/6/3 211/6/3 218/6/3
f 223/4/3 221/4/3 220/4/3
f 224/3/3 222/3/3 221/3/3
f 224/4/3 221/4/3 223/4/3
f 225/3/3 222/3/3 224/3/3
f 228/3/3 227/3/3 226/3/3
f 229/3/3 227/3/3 228/3/3
f 234/5/3 231/5/3 230/5/3
f 235/5/3 231/5/3 234/5/3
f 236/3/3 233/3/3 232/3/3
f 237/3/3 233/3/3 236/3/3
f 240/2/3 239/2/3 238/2/3
f 241/2/3 239/2/3 240/2/3
f 246/2/3 243/2/3 242/2/3
f 247/2/3 243/2/3 246/2/3
f 248/2/3 245/2/3 244/2/3
f 249/2/3 245/2/3 248/2/3
f 253/5/3 251/5/3 250/5/3
f 254/5/3 251/5/3 253/5/3
f 256/3/3 253/3/3 252/3/3
f 256/3/3 254/3/3 253/3/3
f 257/3/3 254/3/3 256/3/3
f 258/3/3 254/3/3 257/3/3
f 262/3/3 256/3/3 255/3/3
f 263/3/3 256/3/3 262/3/3
f 264/5/3 258/5/3 257/5/3
f 265/5/3 258/5/3 264/5/3
f 266/3/3 260/3/3 259/3/3
f 267/3/3 260/3/3 266/3/3
f 268/3/3 260/3/3 267/3/3
f 270/3/3 262/3/3 261/3/3
f 271/3/3 262/3/3 270/3/3
f 272/3/3 269/3/3 268/3/3
f 272/3/3 268/3/3 267/3/3
f 273/3/3 269/3/3 272/3/3
f 274/3/3 269/3/3 273/3/3
f 276/3/3 270/3/3 261/3/3
f 277/3/3 270/3/3 276/3/3
f 279/2/3 273/2/3 272/2/3
f 280/2/3 273/2/3 279/2/3
f 281/2/3 275/2/3 274/2/3
f 282/2/3 275/2/3 281/2/3
f 283/3/3 278/3/3 277/3/3
f 285/3/3 284/3/3 283/3/3
f 285/3/3 283/3/3 277/3/3
f 286/3/3 284/3/3 285/3/3
f 287/3/3 284/3/3 286/3/3
f 291/3/3 288/3/3 287/3/3
f 291/3/3 287/3/3 286/3/3
f 292/3/3 288/3/3 291/3/3
f 293/3/3 288/3/3 292/3/3
f 295/3/3 281/3/3 280/3/3
f 296/2/3 290/2/3 289/2/3
f 297/2/3 290/2/3 296/2/3
f 298/2/3 292/2/3 291/2/3
f 299/2/3 292/2/3 298/2/3
f 300/2/3 294/2/3 293/2/3
f 301/2/3 294/2/3 300/2/3
f 302/3/3 295/3/3 280/3/3
f 302/3/3 296/3/3 295/3/3
f 303/3/3 296/3/3 302/3/3
f 304/3/3 299/3/3 298/3/3
f 304/3/3 300/3/3 299/3/3
f 304/3/3 298/3/3 297/3/3
f 305/3/3 300/3/3 304/3/3
f 306/2/3 304/2/3 303/2/3
f 307/2/3 304/2/3 306/2/3
f 311/6/3 309/6/3 308/6/3
f 312/6/3 309/6/3 311/6/3
f 313/1/3 312/1/3 311/1/3
f 314/1/3 312/1/3 313/1/3
f 315/1/3 313/1/3 311/1/3
f 316/1/3 312/1/3 314/1/3
f 317/1/3 312/1/3 316/1/3
f 317/1/3 316/1/3 315/1/3
f 318/1/3 312/1/3 317/1/3
f 319/1/3 312/1/3 318/1/3
f 320/1/3 317/1/3 315/1/3
f 321/1/3 317/1/3 320/1/3
f 322/6/3 311/6/3 310/6/3
f 323/1/3 315/1/3 311/1/3
f 323/6/3 311/6/3 322/6/3
f 323/1/3 320/1/3 315/1/3
f 324/1/3 320/1/3 323/1/3
f 325/1/3 320/1/3 324/1/3
f 327/1/3 324/1/3 323/1/3
f 328/1/3 324/1/3 327/1/3
f 329/1/3 324/1/3 328/1/3
f 330/1/3 324/1/3 329/1/3
f 331/1/3 326/1/3 325/1/3
f 332/1/3 326/1/3 331/1/3
f 334/1/3 312/1/3 319/1/3
f 335/1/3 312/1/3 334/1/3
f 336/1/3 312/1/3 335/1/3
f 339/1/3 329/1/3 328/1/3
f 340/1/3 329/1/3 339/1/3
f 342/1/3 332/1/3 331/1/3
f 342/1/3 333/1/3 332/1/3
f 342/1/3 335/1/3 334/1/3
f 342/1/3 331/1/3 330/1/3
f 342/1/3 334/1/3 333/1/3
f 344/1/3 338/1/3 337/1/3
f 345/1/3 338/1/3 344/1/3
f 346/1/3 329/1/3 340/1/3
f 347/1/3 329/1/3 346/1/3
f 348/1/3 329/1/3 347/1/3
f 349/1/3 342/1/3 341/1/3
f 350/1/3 342/1/3 349/1/3
f 351/1/3 335/1/3 342/1/3
f 351/1/3 342/1/3 350/1/3
f 352/1/3 312/1/3 336/1/3
f 353/1/3 345/1/3 344/1/3
f 356/1/3 348/1/3 347/1/3
f 356/1/3 349/1/3 348/1/3
f 357/1/3 352/1/3 351/1/3
f 357/1/3 351/1/3 350/1/3
f 358/1/3 352/1/3 357/1/3
f 359/1/3 356/1/3 355/1/3
f 359/1/3 349/1/3 356/1/3
f 361/1/3 352/1/3 358/1/3
f 362/1/3 352/1/3 361/1/3
f 363/1/3 360/1/3 359/1/3
f 363/1/3 359/1/3 355/1/3
f 364/1/3 360/1/3 363/1/3
f 365/1/3 360/1/3 364/1/3
f 366/1/3 352/1/3 362/1/3
f 367/1/3 352/1/3 366/1/3
f 368/1/3 363/1/3 355/1/3
f 369/1/3 363/1/3 368/1/3
f 370/1/3 365/1/3 364/1/3
f 371/1/3 365/1/3 370/1/3
f 373/1/3 352/1/3 367/1/3
f 374/1/3 354/1/3 353/1/3
f 377/1/3 373/1/3 372/1/3
f 378/1/3 375/1/3 374/1/3
f 379/1/3 377/1/3 376/1/3
f 380/6/3 344/6/3 343/6/3
f 381/1/3 378/1/3 374/1/3
f 381/6/3 344/6/3 380/6/3
f 381/1/3 379/1/3 378/1/3
f 381/1/3 353/1/3 344/1/3
f 381/1/3 374/1/3 353/1/3
f 382/1/3 352/1/3 373/1/3
f 382/1/3 379/1/3 381/1/3
f 382/1/3 312/1/3 352/1/3
f 382/1/3 377/1/3 379/1/3
f 382/1/3 373/1/3 377/1/3
f 383/6/4 384/6/4 386/6/4
f 386/6/4 384/6/4 387/6/4
f 385/6/4 386/6/4 388/6/4
f 386/1/4 387/1/4 389/1/4
f 388/6/4 386/6/4 389/6/4
f 389/1/4 387/1/4 390/1/4
f 391/4/4 392/4/4 394/4/4
f 392/3/4 393/3/4 395/3/4
f 394/4/4 392/4/4 395/4/4
f 395/3/4 393/3/4 396/3/4
f 397/4/4 398/4/4 400/4/4
f 398/3/4 399/3/4 401/3/4
f 400/4/4 398/4/4 401/4/4
f 401/3/4 399/3/4 402/3/4
f 403/3/4 404/3/4 405/3/4
f 405/3/4 404/3/4 406/3/4
f 407/3/4 408/3/4 409/3/4
f 409/3/4 408/3/4 410/3/4
f 411/3/4 412/3/4 413/3/4
f 413/3/4 412/3/4 414/3/4
f 415/6/4 416/6/4 417/6/4
f 417/6/4 416/6/4 418/6/4
f 415/6/4 417/6/4 419/6/4
f 417/1/4 418/1/4 419/1/4
f 418/6/4 416/6/4 420/6/4
f 419/1/4 418/1/4 420/1/4
f 415/6/4 419/6/4 421/6/4
f 419/6/4 420/6/4 421/6/4
f 420/6/4 416/6/4 422/6/4
f 421/6/4 420/6/4 422/6/4
f 425/6/5 424/6/5 423/6/5
f 426/6/5 424/6/5 425/6/5
f 430/3/5 428/3/5 427/3/5
f 431/2/5 429/2/5 428/2/5
f 431/3/5 428/3/5 430/3/5
f 432/2/5 429/2/5 431/2/5
f 437/3/5 434/3/5 433/3/5
f 438/3/5 434/3/5 437/3/5
f 439/3/5 434/3/5 438/3/5
f 440/3/5 434/3/5 439/3/5
f 441/2/5 436/2/5 435/2/5
f 442/2/5 436/2/5 441/2/5
f 444/3/5 439/3/5 438/3/5
f 445/3/5 439/3/5 444/3/5
f 446/3/5 443/3/5 442/3/5
f 447/3/5 443/3/5 446/3/5
f 451/2/5 449/2/5 448/2/5
f 452/2/5 449/2/5 451/2/5
f 454/2/5 451/2/5 450/2/5
f 455/2/5 451/2/5 454/2/5
f 456/2/5 453/2/5 452/2/5
f 457/2/5 453/2/5 456/2/5
f 460/3/5 459/3/5 458/3/5
f 461/3/5 459/3/5 460/3/5
f 464/3/5 463/3/5 462/3/5
f 465/3/5 463/3/5 464/3/5
f 469/3/5 467/3/5 466/3/5
f 470/2/5 468/2/5 467/2/5
f 470/3/5 467/3/5 469/3/5
f 471/2/5 468/2/5 470/2/5
f 474/2/5 473/2/5 472/2/5
f 475/2/5 473/2/5 474/2/5
f 478/3/5 477/3/5 476/3/5
f 479/3/5 477/3/5 478/3/5
f 482/3/5 481/3/5 480/3/5
f 483/3/5 481/3/5 482/3/5
f 488/5/5 485/5/5 484/5/5
f 489/5/5 485/5/5 488/5/5
f 490/5/5 487/5/5 486/5/5
f 491/5/5 487/5/5 490/5/5
f 494/5/5 493/5/5 492/5/5
f 495/5/5 493/5/5 494/5/5
f 496/5/5 493/5/5 495/5/5
f 497/5/5 493/5/5 496/5/5
f 500/4/5 499/4/5 498/4/5
f 501/4/5 499/4/5 500/4/5
f 502/4/5 499/4/5 501/4/5
f 503/4/5 499/4/5 502/4/5
f 504/3/5 502/3/5 501/3/5
f 505/3/5 502/3/5 504/3/5
f 508/3/5 507/3/5 506/3/5
f 509/3/5 507/3/5 508/3/5
f 513/6/5 511/6/5 510/6/5
f 514/1/5 512/1/5 511/1/5
f 514/6/5 511/6/5 513/6/5
f 515/1/5 512/1/5 514/1/5
f 516/6/6 517/6/6 518/6/6
f 518/6/6 517/6/6 519/6/6
f 516/6/6 518/6/6 520/6/6
f 520/6/6 518/6/6 521/6/6
f 519/6/6 517/6/6 522/6/6
f 522/6/6 517/6/6 523/6/6
f 526/3/6 527/3/6 528/3/6
f 528/3/6 527/3/6 529/3/6
f 524/6/6 525/6/6 530/6/6
f 530/6/6 525/6/6 531/6/6
f 526/3/6 528/3/6 532/3/6
f 532/3/6 528/3/6 533/3/6
f 529/3/6 527/3/6 534/3/6
f 534/3/6 527/3/6 535/3/6
f 536/3/6 537/3/6 538/3/6
f 538/3/6 537/3/6 539/3/6
f 540/2/6 541/2/6 543/2/6
f 543/2/6 541/2/6 544/2/6
f 542/3/6 543/3/6 546/3/6
f 546/3/6 543/3/6 547/3/6
f 544/3/6 545/3/6 548/3/6
f 548/3/6 545/3/6 549/3/6
f 550/3/6 551/3/6 552/3/6
f 552/3/6 551/3/6 553/3/6
f 553/3/6 551/3/6 554/3/6
f 554/3/6 551/3/6 555/3/6
f 553/3/6 554/3/6 558/3/6
f 558/3/6 554/3/6 559/3/6
f 556/2/6 557/2/6 560/2/6
f 560/2/6 557/2/6 561/2/6
f 562/2/6 563/2/6 565/2/6
f 565/2/6 563/2/6 566/2/6
f 564/2/6 565/2/6 568/2/6
f 568/2/6 565/2/6 569/2/6
f 566/2/6 567/2/6 570/2/6
f 570/2/6 567/2/6 571/2/6
f 572/3/6 573/3/6 574/3/6
f 574/3/6 573/3/6 575/3/6
f 576/3/6 577/3/6 578/3/6
f 578/3/6 577/3/6 579/3/6
f 580/3/6 581/3/6 582/3/6
f 582/3/6 581/3/6 583/3/6
f 584/2/6 585/2/6 587/2/6
f 587/2/6 585/2/6 588/2/6
f 586/3/6 587/3/6 590/3/6
f 590/3/6 587/3/6 591/3/6
f 588/3/6 589/3/6 592/3/6
f 592/3/6 589/3/6 593/3/6
f 594/2/6 595/2/6 596/2/6
f 596/2/6 595/2/6 597/2/6
f 598/3/6 599/3/6 600/3/6
f 600/3/6 599/3/6 601/3/6
f 602/3/6 603/3/6 604/3/6
f 604/3/6 603/3/6 605/3/6
f 606/5/6 607/5/6 608/5/6
f 608/5/6 607/5/6 609/5/6
f 608/3/6 609/3/6 610/3/6
f 610/3/6 609/3/6 611/3/6
f 612/3/6 613/3/6 614/3/6
f 614/3/6 613/3/6 615/3/6
f 615/3/6 613/3/6 616/3/6
f 616/3/6 613/3/6 617/3/6
f 615/3/6 616/3/6 618/3/6
f 618/3/6 616/3/6 619/3/6
f 620/6/6 621/6/6 622/6/6
f 622/6/6 621/6/6 623/6/6
f 620/6/6 622/6/6 624/6/6
f 622/1/6 623/1/6 624/1/6
f 623/6/6 621/6/6 625/6/6
f 624/1/6 623/1/6 625/1/6
f 620/6/6 624/6/6 626/6/6
f 624/6/6 625/6/6 626/6/6
f 625/6/6 621/6/6 627/6/6
f 626/6/6 625/6/6 627/6/6
