# MagicaVoxel @ Ephtracy

# group
o 

# material
mtllib fonar.mtl
usemtl palette

# normals
vn -1 0 0
vn 1 0 0
vn 0 0 1
vn 0 0 -1
vn 0 -1 0
vn 0 1 0

# texcoords
vt 0.0683594 0.5
vt 0.373047 0.5
vt 0.994141 0.5

# verts
v -0.3 0 0.1
v -0.3 0 -0.1
v -0.3 0.1 0.1
v -0.3 0.1 -0.1
v -0.3 0.5 0.1
v -0.3 0.5 -0.1
v -0.3 0.6 0.1
v -0.3 0.6 -0.1
v -0.3 0.8 0.1
v -0.3 0.8 2.98023e-08
v -0.3 1 0.1
v -0.3 1 2.98023e-08
v -0.2 0 0.2
v -0.2 0 0.1
v -0.2 0 -0.1
v -0.2 0 -0.2
v -0.2 0.1 0.2
v -0.2 0.1 0.1
v -0.2 0.1 -0.1
v -0.2 0.1 -0.2
v -0.2 0.5 0.2
v -0.2 0.5 0.1
v -0.2 0.5 -0.1
v -0.2 0.5 -0.2
v -0.2 0.6 0.2
v -0.2 0.6 0.1
v -0.2 0.6 -0.1
v -0.2 0.6 -0.2
v -0.2 0.7 0.1
v -0.2 0.7 2.98023e-08
v -0.2 0.8 0.1
v -0.2 0.8 2.98023e-08
v -0.2 1 0.1
v -0.2 1 2.98023e-08
v -0.2 1.1 0.1
v -0.2 1.1 2.98023e-08
v -0.1 0 0.3
v -0.1 0 0.2
v -0.1 0 -0.2
v -0.1 0 -0.3
v -0.1 0.1 0.3
v -0.1 0.1 0.2
v -0.1 0.1 0.1
v -0.1 0.1 -0.1
v -0.1 0.1 -0.2
v -0.1 0.1 -0.3
v -0.1 0.3 0.1
v -0.1 0.3 -0.1
v -0.1 0.4 0.1
v -0.1 0.4 -0.1
v -0.1 0.5 0.3
v -0.1 0.5 0.2
v -0.1 0.5 -0.2
v -0.1 0.5 -0.3
v -0.1 0.6 0.3
v -0.1 0.6 0.2
v -0.1 0.6 0.1
v -0.1 0.6 2.98023e-08
v -0.1 0.6 -0.2
v -0.1 0.6 -0.3
v -0.1 0.7 0.1
v -0.1 0.7 2.98023e-08
v -0.1 1.1 0.1
v -0.1 1.1 2.98023e-08
v -0.1 1.2 0.1
v -0.1 1.2 2.98023e-08
v 0.1 0.7 0.1
v 0.1 0.7 2.98023e-08
v 0.1 0.8 0.1
v 0.1 0.8 2.98023e-08
v 0.1 1 0.1
v 0.1 1 2.98023e-08
v 0.1 1.1 0.1
v 0.1 1.1 2.98023e-08
v 0.2 0.8 0.1
v 0.2 0.8 2.98023e-08
v 0.2 1 0.1
v 0.2 1 2.98023e-08
v -0.2 0.8 0.1
v -0.2 0.8 2.98023e-08
v -0.2 1 0.1
v -0.2 1 2.98023e-08
v -0.1 0.7 0.1
v -0.1 0.7 2.98023e-08
v -0.1 0.8 0.1
v -0.1 0.8 2.98023e-08
v -0.1 1 0.1
v -0.1 1 2.98023e-08
v -0.1 1.1 0.1
v -0.1 1.1 2.98023e-08
v 0.1 0 0.3
v 0.1 0 0.2
v 0.1 0 -0.2
v 0.1 0 -0.3
v 0.1 0.1 0.3
v 0.1 0.1 0.2
v 0.1 0.1 0.1
v 0.1 0.1 -0.1
v 0.1 0.1 -0.2
v 0.1 0.1 -0.3
v 0.1 0.3 0.1
v 0.1 0.3 -0.1
v 0.1 0.4 0.1
v 0.1 0.4 -0.1
v 0.1 0.5 0.3
v 0.1 0.5 0.2
v 0.1 0.5 -0.2
v 0.1 0.5 -0.3
v 0.1 0.6 0.3
v 0.1 0.6 0.2
v 0.1 0.6 0.1
v 0.1 0.6 2.98023e-08
v 0.1 0.6 -0.2
v 0.1 0.6 -0.3
v 0.1 0.7 0.1
v 0.1 0.7 2.98023e-08
v 0.1 1.1 0.1
v 0.1 1.1 2.98023e-08
v 0.1 1.2 0.1
v 0.1 1.2 2.98023e-08
v 0.2 0 0.2
v 0.2 0 0.1
v 0.2 0 -0.1
v 0.2 0 -0.2
v 0.2 0.1 0.2
v 0.2 0.1 0.1
v 0.2 0.1 -0.1
v 0.2 0.1 -0.2
v 0.2 0.5 0.2
v 0.2 0.5 0.1
v 0.2 0.5 -0.1
v 0.2 0.5 -0.2
v 0.2 0.6 0.2
v 0.2 0.6 0.1
v 0.2 0.6 -0.1
v 0.2 0.6 -0.2
v 0.2 0.7 0.1
v 0.2 0.7 2.98023e-08
v 0.2 0.8 0.1
v 0.2 0.8 2.98023e-08
v 0.2 1 0.1
v 0.2 1 2.98023e-08
v 0.2 1.1 0.1
v 0.2 1.1 2.98023e-08
v 0.3 0 0.1
v 0.3 0 -0.1
v 0.3 0.1 0.1
v 0.3 0.1 -0.1
v 0.3 0.5 0.1
v 0.3 0.5 -0.1
v 0.3 0.6 0.1
v 0.3 0.6 -0.1
v 0.3 0.8 0.1
v 0.3 0.8 2.98023e-08
v 0.3 1 0.1
v 0.3 1 2.98023e-08
v -0.1 0 0.3
v -0.1 0.1 0.3
v -0.1 0.5 0.3
v -0.1 0.6 0.3
v 0.1 0 0.3
v 0.1 0.1 0.3
v 0.1 0.5 0.3
v 0.1 0.6 0.3
v -0.2 0 0.2
v -0.2 0.1 0.2
v -0.2 0.5 0.2
v -0.2 0.6 0.2
v -0.1 0 0.2
v -0.1 0.1 0.2
v -0.1 0.5 0.2
v -0.1 0.6 0.2
v 0.1 0 0.2
v 0.1 0.1 0.2
v 0.1 0.5 0.2
v 0.1 0.6 0.2
v 0.2 0 0.2
v 0.2 0.1 0.2
v 0.2 0.5 0.2
v 0.2 0.6 0.2
v -0.3 0 0.1
v -0.3 0.1 0.1
v -0.3 0.5 0.1
v -0.3 0.6 0.1
v -0.3 0.8 0.1
v -0.3 1 0.1
v -0.2 0 0.1
v -0.2 0.1 0.1
v -0.2 0.5 0.1
v -0.2 0.6 0.1
v -0.2 0.7 0.1
v -0.2 0.8 0.1
v -0.2 1 0.1
v -0.2 1.1 0.1
v -0.1 0.1 0.1
v -0.1 0.3 0.1
v -0.1 0.4 0.1
v -0.1 0.6 0.1
v -0.1 0.7 0.1
v -0.1 0.8 0.1
v -0.1 1 0.1
v -0.1 1.1 0.1
v -0.1 1.2 0.1
v 0.1 0.1 0.1
v 0.1 0.3 0.1
v 0.1 0.4 0.1
v 0.1 0.6 0.1
v 0.1 0.7 0.1
v 0.1 0.8 0.1
v 0.1 1 0.1
v 0.1 1.1 0.1
v 0.1 1.2 0.1
v 0.2 0 0.1
v 0.2 0.1 0.1
v 0.2 0.5 0.1
v 0.2 0.6 0.1
v 0.2 0.7 0.1
v 0.2 0.8 0.1
v 0.2 1 0.1
v 0.2 1.1 0.1
v 0.3 0 0.1
v 0.3 0.1 0.1
v 0.3 0.5 0.1
v 0.3 0.6 0.1
v 0.3 0.8 0.1
v 0.3 1 0.1
v -0.3 0.8 2.98023e-08
v -0.3 1 2.98023e-08
v -0.2 0.7 2.98023e-08
v -0.2 0.8 2.98023e-08
v -0.2 1 2.98023e-08
v -0.2 1.1 2.98023e-08
v -0.1 0.6 2.98023e-08
v -0.1 0.7 2.98023e-08
v -0.1 0.8 2.98023e-08
v -0.1 1 2.98023e-08
v -0.1 1.1 2.98023e-08
v -0.1 1.2 2.98023e-08
v 0.1 0.6 2.98023e-08
v 0.1 0.7 2.98023e-08
v 0.1 0.8 2.98023e-08
v 0.1 1 2.98023e-08
v 0.1 1.1 2.98023e-08
v 0.1 1.2 2.98023e-08
v 0.2 0.7 2.98023e-08
v 0.2 0.8 2.98023e-08
v 0.2 1 2.98023e-08
v 0.2 1.1 2.98023e-08
v 0.3 0.8 2.98023e-08
v 0.3 1 2.98023e-08
v -0.3 0 -0.1
v -0.3 0.1 -0.1
v -0.3 0.5 -0.1
v -0.3 0.6 -0.1
v -0.2 0 -0.1
v -0.2 0.1 -0.1
v -0.2 0.5 -0.1
v -0.2 0.6 -0.1
v -0.1 0.1 -0.1
v -0.1 0.3 -0.1
v -0.1 0.4 -0.1
v 0.1 0.1 -0.1
v 0.1 0.3 -0.1
v 0.1 0.4 -0.1
v 0.2 0 -0.1
v 0.2 0.1 -0.1
v 0.2 0.5 -0.1
v 0.2 0.6 -0.1
v 0.3 0 -0.1
v 0.3 0.1 -0.1
v 0.3 0.5 -0.1
v 0.3 0.6 -0.1
v -0.2 0 -0.2
v -0.2 0.1 -0.2
v -0.2 0.5 -0.2
v -0.2 0.6 -0.2
v -0.1 0 -0.2
v -0.1 0.1 -0.2
v -0.1 0.5 -0.2
v -0.1 0.6 -0.2
v 0.1 0 -0.2
v 0.1 0.1 -0.2
v 0.1 0.5 -0.2
v 0.1 0.6 -0.2
v 0.2 0 -0.2
v 0.2 0.1 -0.2
v 0.2 0.5 -0.2
v 0.2 0.6 -0.2
v -0.1 0 -0.3
v -0.1 0.1 -0.3
v -0.1 0.5 -0.3
v -0.1 0.6 -0.3
v 0.1 0 -0.3
v 0.1 0.1 -0.3
v 0.1 0.5 -0.3
v 0.1 0.6 -0.3
v -0.1 0 0.3
v 0.1 0 0.3
v -0.2 0 0.2
v -0.1 0 0.2
v 0.1 0 0.2
v 0.2 0 0.2
v -0.3 0 0.1
v -0.2 0 0.1
v 0.2 0 0.1
v 0.3 0 0.1
v -0.3 0 -0.1
v -0.2 0 -0.1
v 0.2 0 -0.1
v 0.3 0 -0.1
v -0.2 0 -0.2
v -0.1 0 -0.2
v 0.1 0 -0.2
v 0.2 0 -0.2
v -0.1 0 -0.3
v 0.1 0 -0.3
v -0.1 0.5 0.3
v 0.1 0.5 0.3
v -0.2 0.5 0.2
v -0.1 0.5 0.2
v 0.1 0.5 0.2
v 0.2 0.5 0.2
v -0.3 0.5 0.1
v -0.2 0.5 0.1
v 0.2 0.5 0.1
v 0.3 0.5 0.1
v -0.3 0.5 -0.1
v -0.2 0.5 -0.1
v 0.2 0.5 -0.1
v 0.3 0.5 -0.1
v -0.2 0.5 -0.2
v -0.1 0.5 -0.2
v 0.1 0.5 -0.2
v 0.2 0.5 -0.2
v -0.1 0.5 -0.3
v 0.1 0.5 -0.3
v -0.2 0.7 0.1
v -0.1 0.7 0.1
v 0.1 0.7 0.1
v 0.2 0.7 0.1
v -0.2 0.7 2.98023e-08
v -0.1 0.7 2.98023e-08
v 0.1 0.7 2.98023e-08
v 0.2 0.7 2.98023e-08
v -0.3 0.8 0.1
v -0.2 0.8 0.1
v 0.2 0.8 0.1
v 0.3 0.8 0.1
v -0.3 0.8 2.98023e-08
v -0.2 0.8 2.98023e-08
v 0.2 0.8 2.98023e-08
v 0.3 0.8 2.98023e-08
v -0.2 1 0.1
v -0.1 1 0.1
v 0.1 1 0.1
v 0.2 1 0.1
v -0.2 1 2.98023e-08
v -0.1 1 2.98023e-08
v 0.1 1 2.98023e-08
v 0.2 1 2.98023e-08
v -0.1 1.1 0.1
v 0.1 1.1 0.1
v -0.1 1.1 2.98023e-08
v 0.1 1.1 2.98023e-08
v -0.1 0.1 0.3
v 0.1 0.1 0.3
v -0.2 0.1 0.2
v -0.1 0.1 0.2
v 0.1 0.1 0.2
v 0.2 0.1 0.2
v -0.3 0.1 0.1
v -0.2 0.1 0.1
v -0.1 0.1 0.1
v 0.1 0.1 0.1
v 0.2 0.1 0.1
v 0.3 0.1 0.1
v -0.3 0.1 -0.1
v -0.2 0.1 -0.1
v -0.1 0.1 -0.1
v 0.1 0.1 -0.1
v 0.2 0.1 -0.1
v 0.3 0.1 -0.1
v -0.2 0.1 -0.2
v -0.1 0.1 -0.2
v 0.1 0.1 -0.2
v 0.2 0.1 -0.2
v -0.1 0.1 -0.3
v 0.1 0.1 -0.3
v -0.1 0.4 0.1
v 0.1 0.4 0.1
v -0.1 0.4 -0.1
v 0.1 0.4 -0.1
v -0.1 0.6 0.3
v 0.1 0.6 0.3
v -0.2 0.6 0.2
v -0.1 0.6 0.2
v 0.1 0.6 0.2
v 0.2 0.6 0.2
v -0.3 0.6 0.1
v -0.2 0.6 0.1
v -0.1 0.6 0.1
v 0.1 0.6 0.1
v 0.2 0.6 0.1
v 0.3 0.6 0.1
v -0.1 0.6 2.98023e-08
v 0.1 0.6 2.98023e-08
v -0.3 0.6 -0.1
v -0.2 0.6 -0.1
v 0.2 0.6 -0.1
v 0.3 0.6 -0.1
v -0.2 0.6 -0.2
v -0.1 0.6 -0.2
v 0.1 0.6 -0.2
v 0.2 0.6 -0.2
v -0.1 0.6 -0.3
v 0.1 0.6 -0.3
v -0.1 0.7 0.1
v 0.1 0.7 0.1
v -0.1 0.7 2.98023e-08
v 0.1 0.7 2.98023e-08
v -0.2 0.8 0.1
v -0.1 0.8 0.1
v 0.1 0.8 0.1
v 0.2 0.8 0.1
v -0.2 0.8 2.98023e-08
v -0.1 0.8 2.98023e-08
v 0.1 0.8 2.98023e-08
v 0.2 0.8 2.98023e-08
v -0.3 1 0.1
v -0.2 1 0.1
v 0.2 1 0.1
v 0.3 1 0.1
v -0.3 1 2.98023e-08
v -0.2 1 2.98023e-08
v 0.2 1 2.98023e-08
v 0.3 1 2.98023e-08
v -0.2 1.1 0.1
v -0.1 1.1 0.1
v 0.1 1.1 0.1
v 0.2 1.1 0.1
v -0.2 1.1 2.98023e-08
v -0.1 1.1 2.98023e-08
v 0.1 1.1 2.98023e-08
v 0.2 1.1 2.98023e-08
v -0.1 1.2 0.1
v 0.1 1.2 0.1
v -0.1 1.2 2.98023e-08
v 0.1 1.2 2.98023e-08

# faces
f 3/2/1 2/2/1 1/2/1
f 4/2/1 2/2/1 3/2/1
f 7/2/1 6/2/1 5/2/1
f 8/2/1 6/2/1 7/2/1
f 11/3/1 10/3/1 9/3/1
f 12/3/1 10/3/1 11/3/1
f 17/2/1 14/2/1 13/2/1
f 18/2/1 14/2/1 17/2/1
f 19/2/1 16/2/1 15/2/1
f 20/2/1 16/2/1 19/2/1
f 25/2/1 22/2/1 21/2/1
f 26/2/1 22/2/1 25/2/1
f 27/2/1 24/2/1 23/2/1
f 28/2/1 24/2/1 27/2/1
f 31/3/1 30/3/1 29/3/1
f 32/3/1 30/3/1 31/3/1
f 35/3/1 34/3/1 33/3/1
f 36/3/1 34/3/1 35/3/1
f 41/2/1 38/2/1 37/2/1
f 42/2/1 38/2/1 41/2/1
f 45/2/1 40/2/1 39/2/1
f 46/2/1 40/2/1 45/2/1
f 47/3/1 44/3/1 43/3/1
f 48/3/1 44/3/1 47/3/1
f 49/1/1 48/1/1 47/1/1
f 50/1/1 48/1/1 49/1/1
f 55/2/1 52/2/1 51/2/1
f 56/2/1 52/2/1 55/2/1
f 59/2/1 54/2/1 53/2/1
f 60/2/1 54/2/1 59/2/1
f 61/3/1 58/3/1 57/3/1
f 62/3/1 58/3/1 61/3/1
f 65/3/1 64/3/1 63/3/1
f 66/3/1 64/3/1 65/3/1
f 69/3/1 68/3/1 67/3/1
f 70/3/1 68/3/1 69/3/1
f 73/3/1 72/3/1 71/3/1
f 74/3/1 72/3/1 73/3/1
f 77/3/1 76/3/1 75/3/1
f 78/3/1 76/3/1 77/3/1
f 79/3/2 80/3/2 81/3/2
f 81/3/2 80/3/2 82/3/2
f 83/3/2 84/3/2 85/3/2
f 85/3/2 84/3/2 86/3/2
f 87/3/2 88/3/2 89/3/2
f 89/3/2 88/3/2 90/3/2
f 91/2/2 92/2/2 95/2/2
f 95/2/2 92/2/2 96/2/2
f 93/2/2 94/2/2 99/2/2
f 99/2/2 94/2/2 100/2/2
f 97/3/2 98/3/2 101/3/2
f 101/3/2 98/3/2 102/3/2
f 101/1/2 102/1/2 103/1/2
f 103/1/2 102/1/2 104/1/2
f 105/2/2 106/2/2 109/2/2
f 109/2/2 106/2/2 110/2/2
f 107/2/2 108/2/2 113/2/2
f 113/2/2 108/2/2 114/2/2
f 111/3/2 112/3/2 115/3/2
f 115/3/2 112/3/2 116/3/2
f 117/3/2 118/3/2 119/3/2
f 119/3/2 118/3/2 120/3/2
f 121/2/2 122/2/2 125/2/2
f 125/2/2 122/2/2 126/2/2
f 123/2/2 124/2/2 127/2/2
f 127/2/2 124/2/2 128/2/2
f 129/2/2 130/2/2 133/2/2
f 133/2/2 130/2/2 134/2/2
f 131/2/2 132/2/2 135/2/2
f 135/2/2 132/2/2 136/2/2
f 137/3/2 138/3/2 139/3/2
f 139/3/2 138/3/2 140/3/2
f 141/3/2 142/3/2 143/3/2
f 143/3/2 142/3/2 144/3/2
f 145/2/2 146/2/2 147/2/2
f 147/2/2 146/2/2 148/2/2
f 149/2/2 150/2/2 151/2/2
f 151/2/2 150/2/2 152/2/2
f 153/3/2 154/3/2 155/3/2
f 155/3/2 154/3/2 156/3/2
f 161/2/3 158/2/3 157/2/3
f 162/2/3 158/2/3 161/2/3
f 163/2/3 160/2/3 159/2/3
f 164/2/3 160/2/3 163/2/3
f 169/2/3 166/2/3 165/2/3
f 170/2/3 166/2/3 169/2/3
f 171/2/3 168/2/3 167/2/3
f 172/2/3 168/2/3 171/2/3
f 177/2/3 174/2/3 173/2/3
f 178/2/3 174/2/3 177/2/3
f 179/2/3 176/2/3 175/2/3
f 180/2/3 176/2/3 179/2/3
f 187/2/3 182/2/3 181/2/3
f 188/2/3 182/2/3 187/2/3
f 189/2/3 184/2/3 183/2/3
f 190/2/3 184/2/3 189/2/3
f 192/3/3 186/3/3 185/3/3
f 193/3/3 186/3/3 192/3/3
f 199/3/3 192/3/3 191/3/3
f 200/3/3 192/3/3 199/3/3
f 201/3/3 194/3/3 193/3/3
f 202/3/3 194/3/3 201/3/3
f 204/3/3 196/3/3 195/3/3
f 205/1/3 197/1/3 196/1/3
f 205/3/3 196/3/3 204/3/3
f 206/1/3 197/1/3 205/1/3
f 207/3/3 199/3/3 198/3/3
f 208/3/3 199/3/3 207/3/3
f 211/3/3 203/3/3 202/3/3
f 212/3/3 203/3/3 211/3/3
f 217/3/3 209/3/3 208/3/3
f 218/3/3 209/3/3 217/3/3
f 219/3/3 211/3/3 210/3/3
f 220/3/3 211/3/3 219/3/3
f 221/2/3 214/2/3 213/2/3
f 222/2/3 214/2/3 221/2/3
f 223/2/3 216/2/3 215/2/3
f 224/2/3 216/2/3 223/2/3
f 225/3/3 219/3/3 218/3/3
f 226/3/3 219/3/3 225/3/3
f 227/3/4 228/3/4 230/3/4
f 230/3/4 228/3/4 231/3/4
f 229/3/4 230/3/4 234/3/4
f 234/3/4 230/3/4 235/3/4
f 231/3/4 232/3/4 236/3/4
f 236/3/4 232/3/4 237/3/4
f 233/3/4 234/3/4 239/3/4
f 239/3/4 234/3/4 240/3/4
f 237/3/4 238/3/4 243/3/4
f 243/3/4 238/3/4 244/3/4
f 240/3/4 241/3/4 245/3/4
f 245/3/4 241/3/4 246/3/4
f 242/3/4 243/3/4 247/3/4
f 247/3/4 243/3/4 248/3/4
f 246/3/4 247/3/4 249/3/4
f 249/3/4 247/3/4 250/3/4
f 251/2/4 252/2/4 255/2/4
f 255/2/4 252/2/4 256/2/4
f 253/2/4 254/2/4 257/2/4
f 257/2/4 254/2/4 258/2/4
f 259/3/4 260/3/4 262/3/4
f 260/1/4 261/1/4 263/1/4
f 262/3/4 260/3/4 263/3/4
f 263/1/4 261/1/4 264/1/4
f 265/2/4 266/2/4 269/2/4
f 269/2/4 266/2/4 270/2/4
f 267/2/4 268/2/4 271/2/4
f 271/2/4 268/2/4 272/2/4
f 273/2/4 274/2/4 277/2/4
f 277/2/4 274/2/4 278/2/4
f 275/2/4 276/2/4 279/2/4
f 279/2/4 276/2/4 280/2/4
f 281/2/4 282/2/4 285/2/4
f 285/2/4 282/2/4 286/2/4
f 283/2/4 284/2/4 287/2/4
f 287/2/4 284/2/4 288/2/4
f 289/2/4 290/2/4 293/2/4
f 293/2/4 290/2/4 294/2/4
f 291/2/4 292/2/4 295/2/4
f 295/2/4 292/2/4 296/2/4
f 300/2/5 298/2/5 297/2/5
f 301/2/5 298/2/5 300/2/5
f 304/2/5 300/2/5 299/2/5
f 304/2/5 302/2/5 301/2/5
f 304/2/5 301/2/5 300/2/5
f 305/2/5 302/2/5 304/2/5
f 307/2/5 304/2/5 303/2/5
f 307/2/5 306/2/5 305/2/5
f 307/2/5 305/2/5 304/2/5
f 308/2/5 306/2/5 307/2/5
f 309/2/5 306/2/5 308/2/5
f 310/2/5 306/2/5 309/2/5
f 311/2/5 309/2/5 308/2/5
f 312/2/5 309/2/5 311/2/5
f 313/2/5 309/2/5 312/2/5
f 314/2/5 309/2/5 313/2/5
f 315/2/5 313/2/5 312/2/5
f 316/2/5 313/2/5 315/2/5
f 320/2/5 318/2/5 317/2/5
f 321/2/5 318/2/5 320/2/5
f 324/2/5 320/2/5 319/2/5
f 324/2/5 322/2/5 321/2/5
f 324/2/5 321/2/5 320/2/5
f 325/2/5 322/2/5 324/2/5
f 327/2/5 324/2/5 323/2/5
f 327/2/5 326/2/5 325/2/5
f 327/2/5 325/2/5 324/2/5
f 328/2/5 326/2/5 327/2/5
f 329/2/5 326/2/5 328/2/5
f 330/2/5 326/2/5 329/2/5
f 331/2/5 329/2/5 328/2/5
f 332/2/5 329/2/5 331/2/5
f 333/2/5 329/2/5 332/2/5
f 334/2/5 329/2/5 333/2/5
f 335/2/5 333/2/5 332/2/5
f 336/2/5 333/2/5 335/2/5
f 341/3/5 338/3/5 337/3/5
f 342/3/5 338/3/5 341/3/5
f 343/3/5 340/3/5 339/3/5
f 344/3/5 340/3/5 343/3/5
f 349/3/5 346/3/5 345/3/5
f 350/3/5 346/3/5 349/3/5
f 351/3/5 348/3/5 347/3/5
f 352/3/5 348/3/5 351/3/5
f 357/3/5 354/3/5 353/3/5
f 358/3/5 354/3/5 357/3/5
f 359/3/5 356/3/5 355/3/5
f 360/3/5 356/3/5 359/3/5
f 363/3/5 362/3/5 361/3/5
f 364/3/5 362/3/5 363/3/5
f 365/2/6 366/2/6 368/2/6
f 368/2/6 366/2/6 369/2/6
f 367/2/6 368/2/6 372/2/6
f 369/2/6 370/2/6 372/2/6
f 368/2/6 369/2/6 372/2/6
f 372/2/6 370/2/6 373/2/6
f 373/2/6 370/2/6 374/2/6
f 374/2/6 370/2/6 375/2/6
f 371/2/6 372/2/6 377/2/6
f 372/2/6 373/2/6 377/2/6
f 377/2/6 373/2/6 378/2/6
f 378/2/6 373/2/6 379/2/6
f 375/2/6 376/2/6 380/2/6
f 374/2/6 375/2/6 380/2/6
f 380/2/6 376/2/6 381/2/6
f 381/2/6 376/2/6 382/2/6
f 378/2/6 379/2/6 383/2/6
f 380/2/6 381/2/6 383/2/6
f 379/2/6 380/2/6 383/2/6
f 383/2/6 381/2/6 384/2/6
f 384/2/6 381/2/6 385/2/6
f 385/2/6 381/2/6 386/2/6
f 384/2/6 385/2/6 387/2/6
f 387/2/6 385/2/6 388/2/6
f 389/1/6 390/1/6 391/1/6
f 391/1/6 390/1/6 392/1/6
f 393/2/6 394/2/6 396/2/6
f 396/2/6 394/2/6 397/2/6
f 395/2/6 396/2/6 400/2/6
f 397/2/6 398/2/6 400/2/6
f 396/2/6 397/2/6 400/2/6
f 400/2/6 398/2/6 401/2/6
f 401/2/6 398/2/6 402/2/6
f 402/2/6 398/2/6 403/2/6
f 399/2/6 400/2/6 405/2/6
f 400/2/6 401/2/6 405/2/6
f 403/2/6 404/2/6 406/2/6
f 402/2/6 403/2/6 406/2/6
f 399/2/6 405/2/6 407/2/6
f 405/2/6 406/2/6 407/2/6
f 407/2/6 406/2/6 408/2/6
f 406/2/6 404/2/6 409/2/6
f 408/2/6 406/2/6 409/2/6
f 409/2/6 404/2/6 410/2/6
f 408/2/6 409/2/6 411/2/6
f 411/2/6 409/2/6 412/2/6
f 412/2/6 409/2/6 413/2/6
f 413/2/6 409/2/6 414/2/6
f 412/2/6 413/2/6 415/2/6
f 415/2/6 413/2/6 416/2/6
f 417/3/6 418/3/6 419/3/6
f 419/3/6 418/3/6 420/3/6
f 421/3/6 422/3/6 425/3/6
f 425/3/6 422/3/6 426/3/6
f 423/3/6 424/3/6 427/3/6
f 427/3/6 424/3/6 428/3/6
f 429/3/6 430/3/6 433/3/6
f 433/3/6 430/3/6 434/3/6
f 431/3/6 432/3/6 435/3/6
f 435/3/6 432/3/6 436/3/6
f 437/3/6 438/3/6 441/3/6
f 441/3/6 438/3/6 442/3/6
f 439/3/6 440/3/6 443/3/6
f 443/3/6 440/3/6 444/3/6
f 445/3/6 446/3/6 447/3/6
f 447/3/6 446/3/6 448/3/6
