# MagicaVoxel @ Ephtracy

# group
o 

# material
mtllib komod.mtl
usemtl palette

# normals
vn -1 0 0
vn 1 0 0
vn 0 0 1
vn 0 0 -1
vn 0 -1 0
vn 0 1 0

# texcoords
vt 0.373047 0.5
vt 0.958984 0.5
vt 0.994141 0.5

# verts
v -1 0 1
v -1 0 0.9
v -1 0 -0.9
v -1 0 -1
v -1 0.1 1
v -1 0.1 0.9
v -1 0.1 -0.9
v -1 0.1 -1
v -1 1.5 1
v -1 1.5 -1
v -0.8 0.3 1
v -0.8 0.3 0.9
v -0.8 1.1 1
v -0.8 1.1 0.9
v 0.6 0.6 1.1
v 0.6 0.6 1
v 0.6 0.9 1.1
v 0.6 0.9 1
v 0.8 0.2 1
v 0.8 0.2 0.8
v 0.8 0.3 1
v 0.8 0.3 0.8
v 0.8 1.1 1
v 0.8 1.1 0.9
v 0.8 1.2 1
v 0.8 1.2 0.9
v 0.9 0 1
v 0.9 0 0.9
v 0.9 0 -0.9
v 0.9 0 -1
v 0.9 0.1 1
v 0.9 0.1 0.9
v 0.9 0.1 -0.9
v 0.9 0.1 -1
v 0.9 0.3 1
v 0.9 0.3 0.9
v 0.9 1.1 1
v 0.9 1.1 0.9
v 0.9 1.3 1
v 0.9 1.3 -0.9
v 0.9 1.4 1
v 0.9 1.4 -0.9
v -0.9 0 1
v -0.9 0 0.9
v -0.9 0 -0.9
v -0.9 0 -1
v -0.9 0.1 1
v -0.9 0.1 0.9
v -0.9 0.1 -0.9
v -0.9 0.1 -1
v -0.9 0.3 1
v -0.9 0.3 0.9
v -0.9 1.1 1
v -0.9 1.1 0.9
v -0.9 1.3 1
v -0.9 1.3 -0.9
v -0.9 1.4 1
v -0.9 1.4 -0.9
v -0.8 0.2 1
v -0.8 0.2 0.8
v -0.8 0.3 1
v -0.8 0.3 0.8
v -0.8 1.1 1
v -0.8 1.1 0.9
v -0.8 1.2 1
v -0.8 1.2 0.9
v 0.7 0.6 1.1
v 0.7 0.6 1
v 0.7 0.9 1.1
v 0.7 0.9 1
v 0.8 0.3 1
v 0.8 0.3 0.9
v 0.8 1.1 1
v 0.8 1.1 0.9
v 1 0 1
v 1 0 0.9
v 1 0 -0.9
v 1 0 -1
v 1 0.1 1
v 1 0.1 0.9
v 1 0.1 -0.9
v 1 0.1 -1
v 1 1.5 1
v 1 1.5 -1
v 0.6 0.6 1.1
v 0.6 0.9 1.1
v 0.7 0.6 1.1
v 0.7 0.9 1.1
v -1 0 1
v -1 0.1 1
v -1 1.5 1
v -0.9 0 1
v -0.9 0.1 1
v -0.9 0.3 1
v -0.9 1.1 1
v -0.9 1.3 1
v -0.9 1.4 1
v -0.8 0.2 1
v -0.8 0.3 1
v -0.8 1.1 1
v -0.8 1.2 1
v 0.6 0.6 1
v 0.6 0.9 1
v 0.7 0.6 1
v 0.7 0.9 1
v 0.8 0.2 1
v 0.8 0.3 1
v 0.8 1.1 1
v 0.8 1.2 1
v 0.9 0 1
v 0.9 0.1 1
v 0.9 0.3 1
v 0.9 1.1 1
v 0.9 1.3 1
v 0.9 1.4 1
v 1 0 1
v 1 0.1 1
v 1 1.5 1
v -0.9 0.3 0.9
v -0.9 1.1 0.9
v -0.8 0.3 0.9
v -0.8 1.1 0.9
v -0.8 1.2 0.9
v 0.8 0.3 0.9
v 0.8 1.1 0.9
v 0.8 1.2 0.9
v 0.9 0.3 0.9
v 0.9 1.1 0.9
v -0.8 0.2 0.8
v -0.8 0.3 0.8
v 0.8 0.2 0.8
v 0.8 0.3 0.8
v -1 0 -0.9
v -1 0.1 -0.9
v -0.9 0 -0.9
v -0.9 0.1 -0.9
v -0.9 1.3 -0.9
v -0.9 1.4 -0.9
v 0.9 0 -0.9
v 0.9 0.1 -0.9
v 0.9 1.3 -0.9
v 0.9 1.4 -0.9
v 1 0 -0.9
v 1 0.1 -0.9
v -1 0 0.9
v -1 0.1 0.9
v -0.9 0 0.9
v -0.9 0.1 0.9
v 0.9 0 0.9
v 0.9 0.1 0.9
v 1 0 0.9
v 1 0.1 0.9
v -1 0 -1
v -1 0.1 -1
v -1 1.5 -1
v -0.9 0 -1
v -0.9 0.1 -1
v 0.9 0 -1
v 0.9 0.1 -1
v 1 0 -1
v 1 0.1 -1
v 1 1.5 -1
v -1 0 1
v -0.9 0 1
v 0.9 0 1
v 1 0 1
v -1 0 0.9
v -0.9 0 0.9
v 0.9 0 0.9
v 1 0 0.9
v -1 0 -0.9
v -0.9 0 -0.9
v 0.9 0 -0.9
v 1 0 -0.9
v -1 0 -1
v -0.9 0 -1
v 0.9 0 -1
v 1 0 -1
v -0.9 0.1 1
v 0.9 0.1 1
v -1 0.1 0.9
v -0.9 0.1 0.9
v 0.9 0.1 0.9
v 1 0.1 0.9
v -1 0.1 -0.9
v -0.9 0.1 -0.9
v 0.9 0.1 -0.9
v 1 0.1 -0.9
v -0.9 0.1 -1
v 0.9 0.1 -1
v -0.8 0.3 1
v 0.8 0.3 1
v -0.8 0.3 0.8
v 0.8 0.3 0.8
v 0.6 0.6 1.1
v 0.7 0.6 1.1
v 0.6 0.6 1
v 0.7 0.6 1
v -0.9 1.1 1
v -0.8 1.1 1
v 0.8 1.1 1
v 0.9 1.1 1
v -0.9 1.1 0.9
v -0.8 1.1 0.9
v 0.8 1.1 0.9
v 0.9 1.1 0.9
v -0.8 1.2 1
v 0.8 1.2 1
v -0.8 1.2 0.9
v 0.8 1.2 0.9
v -0.9 1.4 1
v 0.9 1.4 1
v -0.9 1.4 -0.9
v 0.9 1.4 -0.9
v -0.8 0.2 1
v 0.8 0.2 1
v -0.8 0.2 0.8
v 0.8 0.2 0.8
v -0.9 0.3 1
v -0.8 0.3 1
v 0.8 0.3 1
v 0.9 0.3 1
v -0.9 0.3 0.9
v -0.8 0.3 0.9
v 0.8 0.3 0.9
v 0.9 0.3 0.9
v 0.6 0.9 1.1
v 0.7 0.9 1.1
v 0.6 0.9 1
v 0.7 0.9 1
v -0.8 1.1 1
v 0.8 1.1 1
v -0.8 1.1 0.9
v 0.8 1.1 0.9
v -0.9 1.3 1
v 0.9 1.3 1
v -0.9 1.3 -0.9
v 0.9 1.3 -0.9
v -1 1.5 1
v 1 1.5 1
v -1 1.5 -1
v 1 1.5 -1

# faces
f 5/3/1 2/3/1 1/3/1
f 6/3/1 2/3/1 5/3/1
f 7/3/1 4/3/1 3/3/1
f 8/3/1 4/3/1 7/3/1
f 9/1/1 6/1/1 5/1/1
f 9/1/1 7/1/1 6/1/1
f 9/1/1 8/1/1 7/1/1
f 10/1/1 8/1/1 9/1/1
f 13/1/1 12/1/1 11/1/1
f 14/1/1 12/1/1 13/1/1
f 17/2/1 16/2/1 15/2/1
f 18/2/1 16/2/1 17/2/1
f 21/1/1 20/1/1 19/1/1
f 22/1/1 20/1/1 21/1/1
f 25/1/1 24/1/1 23/1/1
f 26/1/1 24/1/1 25/1/1
f 31/3/1 28/3/1 27/3/1
f 32/3/1 28/3/1 31/3/1
f 33/3/1 30/3/1 29/3/1
f 34/3/1 30/3/1 33/3/1
f 37/1/1 36/1/1 35/1/1
f 38/1/1 36/1/1 37/1/1
f 41/1/1 40/1/1 39/1/1
f 42/1/1 40/1/1 41/1/1
f 43/3/2 44/3/2 47/3/2
f 47/3/2 44/3/2 48/3/2
f 45/3/2 46/3/2 49/3/2
f 49/3/2 46/3/2 50/3/2
f 51/1/2 52/1/2 53/1/2
f 53/1/2 52/1/2 54/1/2
f 55/1/2 56/1/2 57/1/2
f 57/1/2 56/1/2 58/1/2
f 59/1/2 60/1/2 61/1/2
f 61/1/2 60/1/2 62/1/2
f 63/1/2 64/1/2 65/1/2
f 65/1/2 64/1/2 66/1/2
f 67/2/2 68/2/2 69/2/2
f 69/2/2 68/2/2 70/2/2
f 71/1/2 72/1/2 73/1/2
f 73/1/2 72/1/2 74/1/2
f 75/3/2 76/3/2 79/3/2
f 79/3/2 76/3/2 80/3/2
f 77/3/2 78/3/2 81/3/2
f 81/3/2 78/3/2 82/3/2
f 79/1/2 80/1/2 83/1/2
f 80/1/2 81/1/2 83/1/2
f 81/1/2 82/1/2 83/1/2
f 83/1/2 82/1/2 84/1/2
f 87/2/3 86/2/3 85/2/3
f 88/2/3 86/2/3 87/2/3
f 92/3/3 90/3/3 89/3/3
f 93/1/3 91/1/3 90/1/3
f 93/3/3 90/3/3 92/3/3
f 94/1/3 91/1/3 93/1/3
f 95/1/3 91/1/3 94/1/3
f 96/1/3 91/1/3 95/1/3
f 97/1/3 91/1/3 96/1/3
f 98/1/3 94/1/3 93/1/3
f 99/1/3 94/1/3 98/1/3
f 100/1/3 96/1/3 95/1/3
f 101/1/3 96/1/3 100/1/3
f 102/1/3 100/1/3 99/1/3
f 103/1/3 100/1/3 102/1/3
f 104/1/3 102/1/3 99/1/3
f 105/1/3 100/1/3 103/1/3
f 106/1/3 98/1/3 93/1/3
f 107/1/3 105/1/3 104/1/3
f 107/1/3 104/1/3 99/1/3
f 108/1/3 100/1/3 105/1/3
f 108/1/3 105/1/3 107/1/3
f 109/1/3 96/1/3 101/1/3
f 111/1/3 106/1/3 93/1/3
f 111/1/3 107/1/3 106/1/3
f 112/1/3 107/1/3 111/1/3
f 113/1/3 109/1/3 108/1/3
f 114/1/3 96/1/3 109/1/3
f 114/1/3 109/1/3 113/1/3
f 115/1/3 91/1/3 97/1/3
f 116/3/3 111/3/3 110/3/3
f 117/1/3 114/1/3 113/1/3
f 117/3/3 111/3/3 116/3/3
f 117/1/3 112/1/3 111/1/3
f 117/1/3 113/1/3 112/1/3
f 117/1/3 115/1/3 114/1/3
f 118/1/3 91/1/3 115/1/3
f 118/1/3 115/1/3 117/1/3
f 121/1/3 120/1/3 119/1/3
f 122/1/3 120/1/3 121/1/3
f 125/1/3 123/1/3 122/1/3
f 126/1/3 123/1/3 125/1/3
f 127/1/3 125/1/3 124/1/3
f 128/1/3 125/1/3 127/1/3
f 131/1/3 130/1/3 129/1/3
f 132/1/3 130/1/3 131/1/3
f 135/3/3 134/3/3 133/3/3
f 136/3/3 134/3/3 135/3/3
f 141/1/3 138/1/3 137/1/3
f 142/1/3 138/1/3 141/1/3
f 143/3/3 140/3/3 139/3/3
f 144/3/3 140/3/3 143/3/3
f 145/3/4 146/3/4 147/3/4
f 147/3/4 146/3/4 148/3/4
f 149/3/4 150/3/4 151/3/4
f 151/3/4 150/3/4 152/3/4
f 153/3/4 154/3/4 156/3/4
f 154/1/4 155/1/4 157/1/4
f 156/3/4 154/3/4 157/3/4
f 157/1/4 155/1/4 159/1/4
f 158/3/4 159/3/4 160/3/4
f 159/1/4 155/1/4 161/1/4
f 160/3/4 159/3/4 161/3/4
f 161/1/4 155/1/4 162/1/4
f 167/3/5 164/3/5 163/3/5
f 168/3/5 164/3/5 167/3/5
f 169/3/5 166/3/5 165/3/5
f 170/3/5 166/3/5 169/3/5
f 175/3/5 172/3/5 171/3/5
f 176/3/5 172/3/5 175/3/5
f 177/3/5 174/3/5 173/3/5
f 178/3/5 174/3/5 177/3/5
f 182/1/5 180/1/5 179/1/5
f 183/1/5 180/1/5 182/1/5
f 185/1/5 182/1/5 181/1/5
f 185/1/5 184/1/5 183/1/5
f 185/1/5 183/1/5 182/1/5
f 186/1/5 184/1/5 185/1/5
f 187/1/5 184/1/5 186/1/5
f 188/1/5 184/1/5 187/1/5
f 189/1/5 187/1/5 186/1/5
f 190/1/5 187/1/5 189/1/5
f 193/1/5 192/1/5 191/1/5
f 194/1/5 192/1/5 193/1/5
f 197/2/5 196/2/5 195/2/5
f 198/2/5 196/2/5 197/2/5
f 203/1/5 200/1/5 199/1/5
f 204/1/5 200/1/5 203/1/5
f 205/1/5 202/1/5 201/1/5
f 206/1/5 202/1/5 205/1/5
f 209/1/5 208/1/5 207/1/5
f 210/1/5 208/1/5 209/1/5
f 213/1/5 212/1/5 211/1/5
f 214/1/5 212/1/5 213/1/5
f 215/1/6 216/1/6 217/1/6
f 217/1/6 216/1/6 218/1/6
f 219/1/6 220/1/6 223/1/6
f 223/1/6 220/1/6 224/1/6
f 221/1/6 222/1/6 225/1/6
f 225/1/6 222/1/6 226/1/6
f 227/2/6 228/2/6 229/2/6
f 229/2/6 228/2/6 230/2/6
f 231/1/6 232/1/6 233/1/6
f 233/1/6 232/1/6 234/1/6
f 235/1/6 236/1/6 237/1/6
f 237/1/6 236/1/6 238/1/6
f 239/1/6 240/1/6 241/1/6
f 241/1/6 240/1/6 242/1/6
